static_00
version=1
nRows=16
nColumns=46
inDegrees=yes
endheader
time	ground_force1_vx	ground_force1_vy	ground_force1_vz	ground_force1_px	ground_force1_py	ground_force1_pz	ground_torque1_x	ground_torque1_y	ground_torque1_z	ground_force2_vx	ground_force2_vy	ground_force2_vz	ground_force2_px	ground_force2_py	ground_force2_pz	ground_torque2_x	ground_torque2_y	ground_torque2_z	ground_force3_vx	ground_force3_vy	ground_force3_vz	ground_force3_px	ground_force3_py	ground_force3_pz	ground_torque3_x	ground_torque3_y	ground_torque3_z	ground_force4_vx	ground_force4_vy	ground_force4_vz	ground_force4_px	ground_force4_py	ground_force4_pz	ground_torque4_x	ground_torque4_y	ground_torque4_z	ground_force5_vx	ground_force5_vy	ground_force5_vz	ground_force5_px	ground_force5_py	ground_force5_pz	ground_torque5_x	ground_torque5_y	ground_torque5_z
0.915000	-0.000000	-0.000000	0.000000	0.200000	0.000000	0.920000	0.000000	0.000000	0.000000	-0.000000	-0.000000	0.000000	0.200000	0.000000	0.320000	0.000000	0.000000	0.000000	-0.000000	-0.000000	0.000000	0.200000	0.000000	-0.300000	0.000000	0.000000	0.000000	-1.059031	574.202271	1.458223	0.167927	0.000000	-0.840260	0.000010	0.161736	-0.000003	-0.000000	-0.000000	0.000000	0.200000	0.000000	-1.500000	0.000000	0.000000	0.000000	
0.915500	-0.000000	-0.000000	0.000000	0.200000	0.000000	0.920000	0.000000	0.000000	0.000000	-0.000000	-0.000000	0.000000	0.200000	0.000000	0.320000	0.000000	0.000000	0.000000	-0.000000	-0.000000	0.000000	0.200000	0.000000	-0.300000	0.000000	0.000000	0.000000	-0.976965	575.479858	1.859559	0.167815	0.000000	-0.840047	0.000050	0.179050	0.000004	-0.000000	-0.000000	0.000000	0.200000	0.000000	-1.500000	0.000000	0.000000	0.000000	
0.916000	-0.000000	-0.000000	0.000000	0.200000	0.000000	0.920000	0.000000	0.000000	0.000000	-0.000000	-0.000000	0.000000	0.200000	0.000000	0.320000	0.000000	0.000000	0.000000	-0.000000	-0.000000	0.000000	0.200000	0.000000	-0.300000	0.000000	0.000000	0.000000	-0.894899	576.757446	2.260895	0.167703	0.000000	-0.839834	0.000022	0.196488	0.000005	-0.000000	-0.000000	0.000000	0.200000	0.000000	-1.500000	0.000000	0.000000	0.000000	
0.916500	-0.000000	-0.000000	0.000000	0.200000	0.000000	0.920000	0.000000	0.000000	0.000000	-0.000000	-0.000000	0.000000	0.200000	0.000000	0.320000	0.000000	0.000000	0.000000	-0.000000	-0.000000	0.000000	0.200000	0.000000	-0.300000	0.000000	0.000000	0.000000	-1.217757	575.316406	1.939316	0.167692	0.000000	-0.839867	0.000032	0.115481	0.000007	-0.000000	-0.000000	0.000000	0.200000	0.000000	-1.500000	0.000000	0.000000	0.000000	
0.917000	-0.000000	-0.000000	0.000000	0.200000	0.000000	0.920000	0.000000	0.000000	0.000000	-0.000000	-0.000000	0.000000	0.200000	0.000000	0.320000	0.000000	0.000000	0.000000	-0.000000	-0.000000	0.000000	0.200000	0.000000	-0.300000	0.000000	0.000000	0.000000	-1.540615	573.875366	1.617737	0.167682	0.000000	-0.839899	0.000023	0.034488	0.000005	-0.000000	-0.000000	0.000000	0.200000	0.000000	-1.500000	0.000000	0.000000	0.000000	
0.917500	-0.000000	-0.000000	0.000000	0.200000	0.000000	0.920000	0.000000	0.000000	0.000000	-0.000000	-0.000000	0.000000	0.200000	0.000000	0.320000	0.000000	0.000000	0.000000	-0.000000	-0.000000	0.000000	0.200000	0.000000	-0.300000	0.000000	0.000000	0.000000	-1.541387	574.036499	1.860069	0.167592	0.000000	-0.839848	0.000018	0.045643	0.000011	-0.000000	-0.000000	0.000000	0.200000	0.000000	-1.500000	0.000000	0.000000	0.000000	
0.918000	-0.000000	-0.000000	0.000000	0.200000	0.000000	0.920000	0.000000	0.000000	0.000000	-0.000000	-0.000000	0.000000	0.200000	0.000000	0.320000	0.000000	0.000000	0.000000	-0.000000	-0.000000	0.000000	0.200000	0.000000	-0.300000	0.000000	0.000000	0.000000	-1.542159	574.197571	2.102400	0.167503	0.000000	-0.839797	0.000000	0.056841	0.000013	-0.000000	-0.000000	0.000000	0.200000	0.000000	-1.500000	0.000000	0.000000	0.000000	
0.918500	-0.000000	-0.000000	0.000000	0.200000	0.000000	0.920000	0.000000	0.000000	0.000000	-0.000000	-0.000000	0.000000	0.200000	0.000000	0.320000	0.000000	0.000000	0.000000	-0.000000	-0.000000	0.000000	0.200000	0.000000	-0.300000	0.000000	0.000000	0.000000	-1.459321	573.716553	1.699025	0.167297	0.000000	-0.840162	0.000039	-0.002242	-0.000001	-0.000000	-0.000000	0.000000	0.200000	0.000000	-1.500000	0.000000	0.000000	0.000000	
0.919000	-0.000000	-0.000000	0.000000	0.200000	0.000000	0.920000	0.000000	0.000000	0.000000	-0.000000	-0.000000	0.000000	0.200000	0.000000	0.320000	0.000000	0.000000	0.000000	-0.000000	-0.000000	0.000000	0.200000	0.000000	-0.300000	0.000000	0.000000	0.000000	-1.376483	573.235596	1.295650	0.167091	0.000000	-0.840527	0.000004	-0.061550	0.000009	-0.000000	-0.000000	0.000000	0.200000	0.000000	-1.500000	0.000000	0.000000	0.000000	
0.919500	-0.000000	-0.000000	0.000000	0.200000	0.000000	0.920000	0.000000	0.000000	0.000000	-0.000000	-0.000000	0.000000	0.200000	0.000000	0.320000	0.000000	0.000000	0.000000	-0.000000	-0.000000	0.000000	0.200000	0.000000	-0.300000	0.000000	0.000000	0.000000	-1.782179	572.917725	1.053318	0.167323	0.000000	-0.840182	0.000042	-0.016501	-0.000001	-0.000000	-0.000000	0.000000	0.200000	0.000000	-1.500000	0.000000	0.000000	0.000000	
0.920000	-0.000000	-0.000000	0.000000	0.200000	0.000000	0.920000	0.000000	0.000000	0.000000	-0.000000	-0.000000	0.000000	0.200000	0.000000	0.320000	0.000000	0.000000	0.000000	-0.000000	-0.000000	0.000000	0.200000	0.000000	-0.300000	0.000000	0.000000	0.000000	-2.187874	572.599792	0.810987	0.167556	0.000000	-0.839838	0.000030	0.028380	0.000007	-0.000000	-0.000000	0.000000	0.200000	0.000000	-1.500000	0.000000	0.000000	0.000000	
0.920500	-0.000000	-0.000000	0.000000	0.200000	0.000000	0.920000	0.000000	0.000000	0.000000	-0.000000	-0.000000	0.000000	0.200000	0.000000	0.320000	0.000000	0.000000	0.000000	-0.000000	-0.000000	0.000000	0.200000	0.000000	-0.300000	0.000000	0.000000	0.000000	-1.783723	572.601318	1.052808	0.167727	0.000000	-0.839811	0.000036	0.066354	0.000007	-0.000000	-0.000000	0.000000	0.200000	0.000000	-1.500000	0.000000	0.000000	0.000000	
0.921000	-0.000000	-0.000000	0.000000	0.200000	0.000000	0.920000	0.000000	0.000000	0.000000	-0.000000	-0.000000	0.000000	0.200000	0.000000	0.320000	0.000000	0.000000	0.000000	-0.000000	-0.000000	0.000000	0.200000	0.000000	-0.300000	0.000000	0.000000	0.000000	-1.379572	572.602783	1.294629	0.167898	0.000000	-0.839784	0.000008	0.104266	0.000009	-0.000000	-0.000000	0.000000	0.200000	0.000000	-1.500000	0.000000	0.000000	0.000000	
0.921500	-0.000000	-0.000000	0.000000	0.200000	0.000000	0.920000	0.000000	0.000000	0.000000	-0.000000	-0.000000	0.000000	0.200000	0.000000	0.320000	0.000000	0.000000	0.000000	-0.000000	-0.000000	0.000000	0.200000	0.000000	-0.300000	0.000000	0.000000	0.000000	-1.297506	573.242554	1.375406	0.167866	0.000000	-0.839954	0.000008	0.053750	0.000011	-0.000000	-0.000000	0.000000	0.200000	0.000000	-1.500000	0.000000	0.000000	0.000000	
0.922000	-0.000000	-0.000000	0.000000	0.200000	0.000000	0.920000	0.000000	0.000000	0.000000	-0.000000	-0.000000	0.000000	0.200000	0.000000	0.320000	0.000000	0.000000	0.000000	-0.000000	-0.000000	0.000000	0.200000	0.000000	-0.300000	0.000000	0.000000	0.000000	-1.215441	573.882385	1.456183	0.167835	0.000000	-0.840124	0.000018	0.003211	0.000005	-0.000000	-0.000000	0.000000	0.200000	0.000000	-1.500000	0.000000	0.000000	0.000000	
0.922500	-0.000000	-0.000000	0.000000	0.200000	0.000000	0.920000	0.000000	0.000000	0.000000	-0.000000	-0.000000	0.000000	0.200000	0.000000	0.320000	0.000000	0.000000	0.000000	-0.000000	-0.000000	0.000000	0.200000	0.000000	-0.300000	0.000000	0.000000	0.000000	-1.701657	573.399170	1.616718	0.167617	0.000000	-0.839694	0.000049	0.030972	0.000004	-0.000000	-0.000000	0.000000	0.200000	0.000000	-1.500000	0.000000	0.000000	0.000000	
